<svg id="e73dMigm2b51" xmlns="http://www.w3.org/2000/svg" xmlns:xlink="http://www.w3.org/1999/xlink" viewBox="0 0 220 100" shape-rendering="geometricPrecision" text-rendering="geometricPrecision" project-id="717a732888ac4fd697111a7ceb8d2aa7" export-id="6a22243853b34c8c83d369f9827f5bcb" cached="false"><g transform="translate(5.724646-2.111619)"><g transform="matrix(1.85973 0 0-2.09985 77.0537 85.16787)"><path d="M513.37096,529.31424l-8.72007-8.72113v-8.36547-8.36548l8.76007-8.759l8.76006-8.759v25.84561c0,14.21509-.018,25.84561-.04,25.84561s-3.96403-3.92451-8.76007-8.72114Z" transform="matrix(.75 0 0-.75-382.891301 400.823702)" fill="#ff7a57" stroke="#000" stroke-width="0.674713" stroke-opacity="0"/></g><g transform="matrix(-1.85973 0 0 2.09985 34.018976 111.58951)"><path d="M513.37096,529.31424l-8.72007-8.72113v-8.36547-8.36548l8.76007-8.759l8.76006-8.759v25.84561c0,14.21509-.018,25.84561-.04,25.84561s-3.96403-3.92451-8.76007-8.72114Z" transform="matrix(.75 0 0-.75-379.731518 354.878321)" fill="#ff7a57" stroke="#000" stroke-width="0.674713" stroke-opacity="0"/></g><g transform="matrix(1.85973 0 0-2.09985 178.848273 93.194296)"><path d="M565.14217,529.31424l-8.72008-8.72113v-8.36547-8.36548l8.76007-8.759l8.76006-8.759v25.84561c0,14.21509-.018,25.84561-.04,25.84561s-3.96402-3.92451-8.76006-8.72114Z" transform="matrix(.75 0 0-.75-421.151532 404.305323)" fill="#ff7a57" stroke="#000" stroke-width="0.674713" stroke-opacity="0"/><path d="M565.14217,529.31424l-8.498598-6.795547-.221482-10.291053.221482-5.559936h8.498598l8.76005.000004.04,5.522062c0,14.21509,2.323893,25.84561,2.301893,25.84561s-6.305913-3.92451-11.101953-8.72114Z" transform="matrix(.75 0 0-.75-451.546532 402.767689)" fill="#ff7a57" stroke="#000" stroke-width="0.674713" stroke-opacity="0"/></g></g><g transform="matrix(0-1.85973-2.09985 0 48.888619 80.134359)"><path d="M513.37096,529.31424l-8.72007-8.72113v-8.36547-8.36548l8.76007-8.759l8.76006-8.759v25.84561c0,14.21509-.018,25.84561-.04,25.84561s-3.96403-3.92451-8.76007-8.72114Z" transform="matrix(.75 0 0-.75-352.477166 379.649532)" fill="#ff7a57" stroke="#000" stroke-width="0.674713" stroke-opacity="0"/></g><g transform="matrix(0 1.85973 2.09985 0 69.087119 120.426099)"><path d="M513.37096,529.31424l-8.72007-8.72113v-8.36547-8.36548l8.76007-8.759l8.76006-8.759v25.84561c0,14.21509-.018,25.84561-.04,25.84561s-3.96403-3.92451-8.76007-8.72114Z" transform="matrix(.75 0 0-.75-408.670687 379.016102)" fill="#ff7a57" stroke="#000" stroke-width="0.674713" stroke-opacity="0"/></g><g transform="matrix(0-1.85973-2.09985 0 149.264482 80.134332)"><path d="M513.37096,529.31424l-8.72007-8.72113v-8.36547-8.36548l8.76007-8.759l8.76006-8.759v25.84561c0,14.21509-.018,25.84561-.04,25.84561s-3.96403-3.92451-8.76007-8.72114Z" transform="matrix(.75 0 0-.75-352.477166 378.231093)" fill="#ff7a57" stroke="#000" stroke-width="0.674713" stroke-opacity="0"/><path d="M513.37096,529.31424l-8.72007-8.72113v-8.36547-8.36548l8.76007-8.759l8.76006-8.759v25.84561c0,14.21509-.018,25.84561-.04,25.84561s-3.96403-3.92451-8.76007-8.72114Z" transform="matrix(.75 0 0-.75-385.232054 378.259109)" fill="#ff7a57" stroke="#000" stroke-width="0.674713" stroke-opacity="0"/></g><g transform="matrix(0-1.85973-.990415 0 134.738833 118.953258)"><path d="M513.37096,529.31424l-8.72007-8.72113v-8.36547-8.36548l8.76007-8.759l8.76006-8.759v25.84561c0,14.21509-.018,25.84561-.04,25.84561s-3.96403-3.92451-8.76007-8.72114Z" transform="matrix(-.75 0 0 0.75-388.176545 292.648015)" fill="#ff7a57" stroke="#000" stroke-width="0.674713" stroke-opacity="0"/></g></svg>
