<svg id="es6rIp1g4lQ1" xmlns="http://www.w3.org/2000/svg" xmlns:xlink="http://www.w3.org/1999/xlink" viewBox="0 0 335 160" shape-rendering="geometricPrecision" text-rendering="geometricPrecision" project-id="717a732888ac4fd697111a7ceb8d2aa7" export-id="6badcd5f0a0b4940894c7ffe54429228" cached="false"><rect width="48.488644" height="13.537046" rx="0" ry="0" transform="translate(16.833016 34.389845)" fill="#fe7a56" stroke-width="0"/><rect width="48.488644" height="13.537046" rx="0" ry="0" transform="matrix(.655047 0 0 1 167.4575 66.192181)" fill="#fe7a56" stroke-width="0"/><rect width="48.488644" height="13.537046" rx="0" ry="0" transform="translate(215.853765 86.378337)" fill="#fe7a56" stroke-width="0"/><rect width="48.488644" height="13.537046" rx="0" ry="0" transform="matrix(.762969 0 0 1 165.343338 34.389845)" fill="#fe7a56" stroke-width="0"/><rect width="48.488644" height="13.537046" rx="0" ry="0" transform="matrix(.772517 0 0 1 281.290539 34.389849)" fill="#fe7a56" stroke-width="0"/><rect width="48.488644" height="13.537046" rx="0" ry="0" transform="matrix(.650401 0 0 1 285.211779 66.192181)" fill="#fe7a56" stroke-width="0"/><rect width="48.488644" height="13.537046" rx="0" ry="0" transform="matrix(0 1.423537-1 0 327.517356 35.389849)" fill="#fe7a56" stroke-width="0"/><rect width="48.488644" height="13.537046" rx="0" ry="0" transform="matrix(0 1.423537-1 0 287.543891 35.389849)" fill="#fe7a56" stroke-width="0"/><rect width="48.488644" height="13.537046" rx="0" ry="0" transform="matrix(0 1.423537-1 0 98.981925 34.389849)" fill="#fe7a56" stroke-width="0"/><rect width="48.488644" height="13.537046" rx="0" ry="0" transform="matrix(0 1.423537-1 0 170.133728 35.119076)" fill="#fe7a56" stroke-width="0"/><rect width="48.488644" height="13.537046" rx="0" ry="0" transform="matrix(0 1.423537-1 0 144.597918 34.389849)" fill="#fe7a56" stroke-width="0"/><rect width="48.488644" height="13.537046" rx="0" ry="0" transform="matrix(0 1.423537-1 0 234.932376 34.389849)" fill="#fe7a56" stroke-width="0"/><rect width="48.488644" height="13.537046" rx="0" ry="0" transform="matrix(0 1.423537-1 0 209.107193 35.389849)" fill="#fe7a56" stroke-width="0"/><rect width="48.488644" height="13.537046" rx="0" ry="0" transform="matrix(0 0.803314-1 0 72.090183 49.426735)" fill="#fe7a56" stroke-width="0"/><rect width="48.488644" height="13.537046" rx="0" ry="0" transform="matrix(0 0.574795-1 0 122.060872 65.27583)" fill="#fe7a56" stroke-width="0"/><rect width="48.488644" height="13.537046" rx="0" ry="0" transform="matrix(0 0.803314-1 0 22.370062 49.426735)" fill="#fe7a56" stroke-width="0"/><rect width="48.488644" height="13.537046" rx="0" ry="0" transform="translate(16.833016 90.378337)" fill="#fe7a56" stroke-width="0"/></svg>
