<svg id="eVq24OsbEaj1" xmlns="http://www.w3.org/2000/svg" xmlns:xlink="http://www.w3.org/1999/xlink" viewBox="0 0 300 350" shape-rendering="geometricPrecision" text-rendering="geometricPrecision" project-id="5f917a10f44848468d3de52f0bd466b3" export-id="72e52dac4bfb400484f9bcd8dcb14ad1" cached="false"><defs><linearGradient id="eVq24OsbEaj25-fill" x1="0" y1="0.5" x2="1" y2="0.5" spreadMethod="pad" gradientUnits="objectBoundingBox" gradientTransform="translate(0 0)"><stop id="eVq24OsbEaj25-fill-0" offset="0%" stop-color="#392309"/><stop id="eVq24OsbEaj25-fill-1" offset="100%" stop-color="#332928"/></linearGradient><radialGradient id="eVq24OsbEaj27-fill" cx="0" cy="0" r="0.5" spreadMethod="pad" gradientUnits="objectBoundingBox" gradientTransform="translate(0.5 0.5)"><stop id="eVq24OsbEaj27-fill-0" offset="0%" stop-color="#020b12"/><stop id="eVq24OsbEaj27-fill-1" offset="100%" stop-color="#fdf4ed"/></radialGradient></defs><g transform="translate(-53.889999-40.550997)"><g><path d="M307.45,352.57v-19.14c-.087883-30.742353-24.987647-55.642117-55.73-55.73h-3.52c-11.045695,0-20-8.954305-20-20v-20.05h-51.2v20.09c0,11.045695-8.954305,20-20,20h-3.52c-30.742353.087883-55.642117,24.987647-55.73,55.73v19.14c0,8.229043,6.670957,14.9,14.9,14.9h179.9c3.958666.000014,7.754614-1.575292,10.550058-4.378242s4.360569-6.603106,4.349942-10.561758Z" fill="#804b2c"/><path d="M172.15,270.74c9.296448,4.833308,19.622182,7.351278,30.1,7.34h.75c10.477724.010489,20.803273-2.507435,30.1-7.34-3.132253-3.606916-4.857915-8.222883-4.86-13v-20.09h-51.24v20.09c-.000208,4.77567-1.722149,9.391181-4.85,13Z" fill="#66391f"/><g><path d="M251.72,273.7c-5-.07-4.51,0-5-.07-1.103728-.091856-2.194457.289899-3,1.05-10.773625,10.214412-25.05395,15.908647-39.9,15.91h-1.41c-14.893039,0-29.215385-5.728938-40-16-.890127-.811754-2.098701-1.179101-3.29-1-.65.09-5.5.13-5.5.13-15.841381,0-31.03394,6.292964-42.235488,17.494512s-17.494512,26.394107-17.494512,42.235488v19.14c0,10.438182,8.461818,18.9,18.9,18.9h179.76c10.438182,0,18.9-8.461818,18.9-18.9v-19.16c0-15.841381-6.292964-31.03394-17.494512-42.235488s-26.394107-17.494512-42.235488-17.494512Z" fill="#ffcd46"/><path d="M158.19,281.62c12.11186,10.944587,27.85575,17.002671,44.18,17h1.41c16.297377.007588,32.019492-6.024032,44.13-16.93" fill="none" stroke="#f5a13b" stroke-width="4" stroke-linecap="round" stroke-miterlimit="10"/><line x1="143.75" y1="339.51" x2="143.75" y2="359.09" fill="none" stroke="#f5a13b" stroke-width="8" stroke-linecap="round" stroke-miterlimit="10"/><line x1="261.51" y1="339.51" x2="261.51" y2="359.09" fill="none" stroke="#f5a13b" stroke-width="8" stroke-linecap="round" stroke-miterlimit="10"/></g></g><g><circle r="19.5" transform="translate(264.88 180.57)" fill="#804b2c"/><circle r="19.5" transform="translate(140.133896 181.529426)" fill="#804b2c"/><path d="M191.66,85.49h21.94c29.00209-.000001,52.514478,23.50791,52.52,52.51l-1.24,56.08c-3.37,13.45-4.3,25.24-15.076474,39.396454s-24.62393,16.323546-39.403526,16.323546h-15.55c-30.773306,0-48.9-30.48-54.47-55.72L139.13,138c.002652-13.92917,5.538537-27.286784,15.389823-37.134319s23.211007-15.378333,37.140177-15.375681Z" fill="#804b2c"/><path d="M192.06,207.14c2.187309,3.714044,6.146374,6.025788,10.455912,6.10533s8.351214-2.084532,10.674088-5.71533" fill="none" stroke="#542f18" stroke-width="4" stroke-linecap="round" stroke-miterlimit="10"/><path d="M209.41,187.11c-1.419143-2.363024-3.954822-3.829029-6.710774-3.879839s-5.343945,1.320732-6.849226,3.629839" fill="none" stroke="#542f18" stroke-width="4" stroke-linecap="round" stroke-miterlimit="10"/><g><ellipse rx="6.88" ry="7.43" transform="translate(171.12 168.42)"/><ellipse rx="6.88" ry="7.43" transform="translate(234.13 168.42)"/></g><g><line x1="222.47" y1="143.66" x2="245.8" y2="143.66" fill="none" stroke="#542f18" stroke-width="12" stroke-linecap="round" stroke-miterlimit="10"/><line x1="159.46" y1="143.66" x2="182.79" y2="143.66" fill="none" stroke="#542f18" stroke-width="12" stroke-linecap="round" stroke-miterlimit="10"/></g><path d="M260.58,152.33v32.85c-.058472,17.102082-13.273851,31.276044-30.33,32.53v-7.44c.083519-10.634988-8.435716-19.341851-19.07-19.49h-17.09c-10.642128.137251-19.173432,8.847314-19.09,19.49v7.44c-17.059971-1.254254-30.276743-15.434068-30.33-32.54v-32.84v0c-6.075725,7.172712-4.296984,14.539884-4.29,23.94v17.81c9.43,31.26,23.86,55.72,54.02,61.22h16.46c23.275-5.5,41.23-16.249031,50.65-50.199031L264.88,180.57c.001397-9.40264,1.782944-21.070102-4.3-28.24Zm-65.75,50.3h15.6c4.603825.054925,8.294439,3.826062,8.25,8.43v12.47c-.00037,1.492172-.393544,2.957954-1.14,4.25v0c-.995899,1.456297-2.64574,2.327982-4.41,2.33h-1.43c-2.952441-.005503-5.344497-2.397559-5.35-5.35v-1.44c.016952-1.542874.702922-3.002385,1.88-4h-11.23c1.177078.997615,1.863048,2.457126,1.88,4v1.44c-.005503,2.952441-2.397559,5.344497-5.35,5.35h-1.43c-1.899012-.008751-3.650504-1.025378-4.6-2.67-.643589-1.207287-.986614-2.551947-1-3.92v-12.47c-.021324-2.224924.846236-4.366341,2.410152-5.949031s3.694828-2.475742,5.919848-2.480969Z" opacity="0.44" fill="#573a31"/></g></g><g transform="translate(111.274031-17.366735)"><path d="M272,101.39c-.049156-8.479218-6.910782-15.340844-15.39-15.39-.38,0-.76,0-1.13.06.230316-1.00716.347707-2.036844.35-3.07-.038294-7.716069-6.283931-13.961706-14-14h-12.69c-.703539.006919-1.405545.067091-2.1.18-.815378-5.374356-5.434143-9.347259-10.87-9.35h-12.63c-36.566432.263031-66.101282,29.922783-66.21,66.49v16.31v0v38.38h9.43v-4.3v0-35.21c0-4.8,3.41-8.73,7.95-8.73v-20.41c5.085626-5.557695,12.26666-8.731132,19.8-8.75h60.38c7.53334.018868,14.714374,3.192305,19.8,8.75v20.46c4.680003.152358,8.362268,4.048864,8.25,8.73v39.46h9.06v-36.35v0Z" transform="translate(-167.999017-23.392268)" fill="url(#eVq24OsbEaj25-fill)"/><line x1="189.31" y1="90.66" x2="210.36" y2="69.62" transform="translate(-169.41673-28.354264)" fill="none" stroke="#68717d" stroke-width="6" stroke-linecap="round" stroke-miterlimit="10"/><line x1="211.03" y1="93.54" x2="220.06" y2="84.52" transform="translate(-167.999017-31.898547)" fill="url(#eVq24OsbEaj27-fill)" stroke="#68717d" stroke-width="6" stroke-linecap="round" stroke-miterlimit="10"/></g></svg>
